<svg width="18" height="13" viewBox="0 0 18 13" fill="none" xmlns="http://www.w3.org/2000/svg">
<path d="M11.2436 7.696C11.4055 7.53725 11.5345 7.34797 11.6228 7.13909C11.7112 6.93021 11.7573 6.70588 11.7585 6.47908C11.7596 6.25227 11.7158 6.02749 11.6295 5.81773C11.5432 5.60797 11.4162 5.41739 11.2559 5.25702C11.0955 5.09664 10.9049 4.96965 10.6952 4.88338C10.4854 4.79711 10.2606 4.75329 10.0338 4.75443C9.80701 4.75558 9.58268 4.80167 9.3738 4.89005C9.16492 4.97843 8.97564 5.10735 8.81689 5.26933C8.50044 5.59224 8.32422 6.02697 8.3265 6.47908C8.32878 6.93118 8.50939 7.36412 8.82908 7.68381C9.14877 8.0035 9.58171 8.1841 10.0338 8.18639C10.4859 8.18867 10.9207 8.01244 11.2436 7.696ZM4.15884 7.696C4.32083 7.53725 4.44974 7.34797 4.53812 7.13909C4.6265 6.93021 4.6726 6.70588 4.67375 6.47908C4.67489 6.25227 4.63106 6.02749 4.5448 5.81773C4.45853 5.60797 4.33154 5.41739 4.17116 5.25702C4.01079 5.09664 3.82021 4.96965 3.61045 4.88338C3.40069 4.79711 3.1759 4.75329 2.9491 4.75443C2.7223 4.75558 2.49797 4.80167 2.28909 4.89005C2.08021 4.97843 1.89093 5.10735 1.73218 5.26933C1.41573 5.59224 1.23951 6.02697 1.24179 6.47908C1.24407 6.93118 1.42468 7.36412 1.74437 7.68381C2.06406 8.0035 2.497 8.1841 2.9491 8.18639C3.4012 8.18867 3.83594 8.01244 4.15884 7.696ZM7.72547 1.73911C7.5669 1.57667 7.37768 1.44732 7.16876 1.35855C6.95984 1.26978 6.73537 1.22336 6.50838 1.22197C6.28139 1.22059 6.05638 1.26427 5.84639 1.35049C5.6364 1.4367 5.44561 1.56374 5.28508 1.72423C5.12455 1.88473 4.99747 2.07548 4.9112 2.28545C4.82494 2.49542 4.7812 2.72042 4.78253 2.94741C4.78386 3.17441 4.83023 3.39888 4.91895 3.60782C5.00767 3.81677 5.13698 4.00602 5.29938 4.16462C5.62233 4.48001 6.05657 4.6554 6.50797 4.65276C6.95937 4.65011 7.39153 4.46965 7.71077 4.1505C8.03 3.83134 8.21056 3.39922 8.21331 2.94782C8.21607 2.49642 8.04078 2.06213 7.72547 1.73911ZM7.72547 8.82382C7.5669 8.66138 7.37768 8.53203 7.16876 8.44326C6.95984 8.35449 6.73537 8.30807 6.50838 8.30669C6.28139 8.3053 6.05638 8.34898 5.84639 8.4352C5.6364 8.52142 5.44561 8.64845 5.28508 8.80894C5.12455 8.96944 4.99747 9.1602 4.9112 9.37016C4.82494 9.58013 4.7812 9.80513 4.78253 10.0321C4.78386 10.2591 4.83023 10.4836 4.91895 10.6925C5.00767 10.9015 5.13698 11.0907 5.29938 11.2493C5.62233 11.5647 6.05657 11.7401 6.50797 11.7375C6.95937 11.7348 7.39153 11.5544 7.71077 11.2352C8.03 10.9161 8.21056 10.4839 8.21331 10.0325C8.21607 9.58114 8.04078 9.14684 7.72547 8.82382ZM6.83338 6.14929C6.788 6.10388 6.73413 6.06785 6.67483 6.04326C6.61554 6.01867 6.55198 6.006 6.48778 6.00597C6.42359 6.00594 6.36002 6.01856 6.3007 6.0431C6.24138 6.06764 6.18748 6.10363 6.14207 6.149C6.09665 6.19437 6.06063 6.24825 6.03604 6.30754C6.01144 6.36684 5.99877 6.4304 5.99875 6.4946C5.99872 6.55879 6.01134 6.62236 6.03588 6.68168C6.06042 6.741 6.0964 6.7949 6.14178 6.84031C6.23341 6.93202 6.35773 6.98358 6.48737 6.98363C6.61702 6.98369 6.74138 6.93224 6.83309 6.8406C6.9248 6.74897 6.97635 6.62465 6.97641 6.495C6.97646 6.36536 6.92501 6.241 6.83338 6.14929ZM17.268 5.7772C15.344 9.77138 12.5505 11.5134 10.5456 12.2714C9.06071 12.8324 7.79422 12.952 7.1084 12.9694C6.90733 12.9879 6.70511 13 6.50058 13C2.91027 13 0 10.0897 0 6.5C0 2.91027 2.91027 0 6.5 0C10.0903 0 13 2.91027 13 6.5C13.0017 7.98357 12.4931 9.4226 11.5596 10.5756C13.1959 9.64427 14.9361 8.04382 16.2616 5.29302C16.3305 5.16774 16.4449 5.07364 16.5811 5.03007C16.7173 4.9865 16.8651 4.99677 16.9939 5.05877C17.1228 5.12077 17.2231 5.22978 17.274 5.36341C17.325 5.49703 17.3229 5.64511 17.268 5.7772Z" fill="#F9F9F9"/>
</svg>
