<svg width="13" height="13" viewBox="0 0 13 13" fill="none" xmlns="http://www.w3.org/2000/svg">
<path d="M6.75174 3.23124H10.3927C10.9674 3.23124 11.5185 3.45951 11.9248 3.86583C12.3311 4.27215 12.5594 4.82324 12.5594 5.39786V10.8334C12.5594 11.408 12.3311 11.9591 11.9248 12.3654C11.5185 12.7717 10.9674 13 10.3927 13H2.16662C1.592 13 1.04091 12.7717 0.634589 12.3654C0.228268 11.9591 0 11.408 0 10.8334V5.39786C0 4.82324 0.228268 4.27215 0.634589 3.86583C1.04091 3.45951 1.592 3.23124 2.16662 3.23124H5.53085L3.37451 1.07491C3.31605 1.01647 3.26966 0.947094 3.238 0.870732C3.20634 0.794371 3.19004 0.712521 3.19001 0.629857C3.18999 0.547194 3.20624 0.465334 3.23785 0.388953C3.26946 0.312572 3.31581 0.243165 3.37424 0.184696C3.43268 0.126226 3.50206 0.0798379 3.57842 0.0481806C3.65478 0.0165233 3.73663 0.000216534 3.81929 0.000191387C3.90196 0.000166239 3.98382 0.0164234 4.0602 0.0480342C4.13658 0.079645 4.20599 0.125991 4.26446 0.184425L6.14129 2.06126L8.01759 0.184425C8.13567 0.0663397 8.29583 -3.9346e-09 8.46283 0C8.62983 3.9346e-09 8.78998 0.0663397 8.90807 0.184425C9.02615 0.30251 9.09249 0.462668 9.09249 0.629666C9.09249 0.796664 9.02615 0.956822 8.90807 1.07491L6.75174 3.23124ZM10.2335 7.41824C10.4803 7.41824 10.717 7.3202 10.8915 7.14568C11.066 6.97117 11.1641 6.73447 11.1641 6.48767C11.1641 6.24087 11.066 6.00418 10.8915 5.82966C10.717 5.65515 10.4803 5.55711 10.2335 5.55711C9.9867 5.55711 9.75001 5.65515 9.57549 5.82966C9.40098 6.00418 9.30294 6.24087 9.30294 6.48767C9.30294 6.73447 9.40098 6.97117 9.57549 7.14568C9.75001 7.3202 9.9867 7.41824 10.2335 7.41824ZM10.2335 10.6741C10.3576 10.6771 10.481 10.6553 10.5964 10.6099C10.7119 10.5645 10.8172 10.4964 10.906 10.4097C10.9948 10.3231 11.0653 10.2195 11.1135 10.1051C11.1617 9.99077 11.1865 9.86793 11.1865 9.74384C11.1865 9.61974 11.1617 9.4969 11.1135 9.38255C11.0653 9.26819 10.9948 9.16462 10.906 9.07794C10.8172 8.99126 10.7119 8.92321 10.5964 8.8778C10.481 8.8324 10.3576 8.81055 10.2335 8.81354C9.99066 8.8194 9.75973 8.91999 9.59005 9.09381C9.42037 9.26764 9.32539 9.50092 9.32539 9.74384C9.32539 9.98675 9.42037 10.22 9.59005 10.3939C9.75973 10.5677 9.99066 10.6683 10.2335 10.6741Z" fill="#F9F9F9"/>
</svg>
