<svg width="94" height="51" viewBox="0 0 94 51" fill="none" xmlns="http://www.w3.org/2000/svg">
<path d="M66.4352 33.0127C65.1342 33.3109 61.71 33.4825 61.71 33.4825L61.2764 34.8377C61.2764 34.8377 62.9839 34.6932 64.2307 34.8197C64.2307 34.8197 64.6373 34.7745 64.6825 35.2804C64.7005 35.7502 64.6463 36.2562 64.6463 36.2562C64.6463 36.2562 64.6192 36.5634 64.1855 36.6356C63.7157 36.717 60.4994 36.8344 60.4994 36.8344L59.9754 38.5962C59.9754 38.5962 59.7857 39.0027 60.2193 38.8853C60.6259 38.7769 63.9958 38.1444 64.4385 38.2348C64.9083 38.3522 65.4323 38.9756 65.2787 39.5538C65.0981 40.2586 61.7371 42.4088 59.6863 42.2552C59.6863 42.2552 58.6111 42.3275 57.6986 40.8729C56.8494 39.4906 58.0239 36.8615 58.0239 36.8615C58.0239 36.8615 57.4908 35.6328 57.8793 35.2262C57.8793 35.2262 58.1142 35.0184 58.7828 34.9642L59.605 33.2567C59.605 33.2567 58.6654 33.3199 58.1052 32.6333C57.5812 31.9738 57.5451 31.6756 57.9426 31.4949C58.3672 31.2871 62.2792 30.5734 64.9716 30.6637C64.9716 30.6637 65.9112 30.5734 66.7153 32.1996C66.7062 32.1996 67.1038 32.8592 66.4352 33.0127ZM56.3073 39.5719C55.964 40.385 55.0515 41.2524 53.9222 40.7103C52.8019 40.1682 51.022 36.5272 51.022 36.5272C51.022 36.5272 50.3444 35.172 50.2179 35.1991C50.2179 35.1991 50.0734 34.9371 49.983 36.4188C49.8927 37.9005 50.0011 40.7826 49.4138 41.2343C48.8537 41.686 48.1761 41.5053 47.8237 40.9723C47.5075 40.4483 47.372 39.2015 47.5437 37.0151C47.7515 34.8287 48.2574 32.4978 48.9079 31.766C49.5584 31.0432 50.0824 31.5672 50.2812 31.7569C50.2812 31.7569 51.1485 32.5429 52.585 34.8558L52.838 35.2804C52.838 35.2804 54.139 37.4668 54.2745 37.4578C54.2745 37.4578 54.3829 37.5572 54.4733 37.4849C54.6088 37.4488 54.5546 36.7441 54.5546 36.7441C54.5546 36.7441 54.2835 34.3679 53.1 30.3385C53.1 30.3385 52.9193 29.8325 53.0458 29.3627C53.1632 28.8839 53.6421 29.1098 53.6421 29.1098C53.6421 29.1098 55.4851 30.0313 56.3705 33.0308C57.2469 36.0574 56.6506 38.7588 56.3073 39.5719ZM47.2546 31.8653C47.101 32.1725 47.0106 32.6152 46.2336 32.7327C46.2336 32.7327 38.7981 33.2386 38.4457 33.7626C38.4457 33.7626 38.1837 34.0698 38.5903 34.1601C38.9968 34.2415 40.6773 34.4673 41.4904 34.5125C42.3578 34.5215 45.285 34.5486 46.333 35.8587C46.333 35.8587 46.9564 36.4821 46.9293 37.8915C46.9022 39.337 46.6492 39.843 46.0891 40.367C45.5018 40.8548 40.4605 43.1135 37.208 39.6442C37.208 39.6442 35.7082 37.9728 37.723 36.7079C37.723 36.7079 39.1775 35.8316 42.8727 36.8615C42.8727 36.8615 43.993 37.2681 43.9388 37.6746C43.8756 38.1083 43.0173 38.5691 41.7705 38.542C40.5599 38.5058 39.6745 37.9276 39.8461 38.018C40.0087 38.0812 38.5451 37.3132 38.0934 37.8373C37.6416 38.3161 37.7501 38.6142 38.1928 38.9124C39.3221 39.5538 43.6859 39.328 44.9869 37.8824C44.9869 37.8824 45.5018 37.2952 44.7158 36.8163C43.9298 36.3646 41.6802 36.0936 40.8038 36.0484C39.9636 36.0032 36.8376 36.0574 36.3858 35.2262C36.3858 35.2262 35.9341 34.6661 36.431 33.076C36.955 31.4136 40.596 30.7721 42.168 30.6276C42.168 30.6276 46.4956 30.474 47.2907 31.3594C47.2817 31.3594 47.3901 31.5672 47.2546 31.8653ZM34.9674 41.6138C34.4434 42.0022 33.3321 41.8306 33.0159 41.3969C32.6997 41.0084 32.5913 39.4635 32.6545 37.0422C32.7178 34.5938 32.772 31.5582 33.296 31.0793C33.8561 30.5914 34.1994 31.0161 34.4163 31.3504C34.6512 31.6756 34.9312 32.037 34.9945 32.8049C35.0487 33.5729 35.2294 37.6024 35.2294 37.6024C35.2294 37.6024 35.4643 41.2343 34.9674 41.6138ZM36.0967 28.6219C34.5699 29.1278 33.5218 28.9562 32.6364 28.5767C32.2479 29.2543 32.0221 29.4621 31.7239 29.5073C31.2903 29.5525 30.9018 28.8568 30.8295 28.6309C30.7572 28.4593 30.5494 28.1702 30.8024 27.4835C29.9351 26.7065 29.8718 25.6585 30.0164 24.9538C30.2332 24.1407 31.6968 21.0508 36.1509 20.6894C36.1509 20.6894 38.3283 20.5268 38.6987 21.6923H38.762C38.762 21.6923 40.8761 21.7013 40.8309 23.5805C40.8038 25.4688 38.4819 27.8178 36.0967 28.6219ZM31.9408 24.4388C31.489 25.1616 31.471 25.5953 31.6788 25.8934C32.1937 25.1074 33.1333 23.8696 34.5157 22.93C33.4496 23.0204 32.5551 23.4811 31.9408 24.4388ZM38.0934 23.2282C36.693 23.436 34.5247 25.3152 33.4947 26.8511C35.0758 27.1402 37.8675 27.0318 39.1053 24.5111C39.0962 24.5111 39.6925 22.9481 38.0934 23.2282ZM76.1113 37.7831C75.2711 39.2467 72.913 42.3004 69.769 41.5866C68.73 44.1073 67.8627 46.6461 67.3658 50.4587C67.3658 50.4587 67.2573 51.1996 66.643 50.9375C66.0377 50.7207 65.0258 49.7088 64.827 48.3085C64.6102 46.4654 65.4323 43.3484 67.1037 39.7797C66.6159 38.9847 66.2816 37.8463 66.5707 36.2291C66.5707 36.2291 66.9953 33.2296 70.0039 30.5192C70.0039 30.5192 70.3653 30.203 70.5731 30.3023C70.808 30.4017 70.6996 31.3775 70.5098 31.8473C70.3201 32.3171 68.9739 34.648 68.9739 34.648C68.9739 34.648 68.1337 36.2201 68.3686 37.4578C69.9497 35.0275 73.5455 30.1216 75.777 31.6666C76.5269 32.1996 76.8702 33.3651 76.8702 34.6209C76.8612 35.7322 76.5992 36.9067 76.1113 37.7831ZM75.4608 33.9343C75.4608 33.9343 75.3343 32.9676 74.3947 34.0337C73.5816 34.9281 72.118 36.6176 70.9344 38.9034C72.1722 38.7678 73.3648 38.0902 73.7262 37.7469C74.3134 37.2229 75.6777 35.8135 75.4608 33.9343ZM31.5975 35.163C31.4258 37.3494 30.5856 41.0265 24.6317 42.8425C20.7016 44.026 16.9884 43.4568 14.9646 42.9419C14.9194 43.7459 14.8291 44.0893 14.7026 44.2248C14.5309 44.3964 13.248 45.1373 12.5433 44.0893C12.2271 43.5924 12.0645 42.6889 11.9741 41.8848C7.42064 39.7888 5.32459 36.7712 5.24328 36.6356C5.1439 36.5363 4.10491 35.4521 5.1439 34.124C6.11965 32.9224 9.30889 31.7208 12.1819 31.2329C12.2813 28.7755 12.5704 26.9234 12.9137 26.0741C13.3293 25.0893 13.8533 25.9747 14.3051 26.6433C14.6845 27.1402 14.9104 29.2814 14.9285 30.989C16.8077 30.8986 17.9189 31.0341 20.015 31.4136C22.7435 31.9105 24.5685 33.3019 24.4058 34.8829C24.2884 36.4369 22.8609 37.0783 22.3188 37.1235C21.7496 37.1687 20.8643 36.7621 20.8643 36.7621C20.2589 36.473 20.8191 36.2201 21.5509 35.9038C22.3459 35.5153 22.1652 35.1178 22.1652 35.1178C21.8671 34.2505 18.3255 33.6452 14.802 33.6452C14.7839 35.5876 14.8833 38.813 14.9285 40.6922C17.3949 41.162 19.238 41.0717 19.238 41.0717C19.238 41.0717 28.2365 40.8187 28.5076 35.0726C28.7877 29.3176 19.5361 23.7974 12.6969 22.0446C5.86668 20.2558 1.99983 21.5026 1.66555 21.6742C1.30416 21.8549 1.63844 21.9091 1.63844 21.9091C1.63844 21.9091 2.00886 21.9633 2.65033 22.1802C3.32793 22.397 2.80392 22.7493 2.80392 22.7493C1.63844 23.1198 0.328414 22.8849 0.0754425 22.3518C-0.177529 21.8188 0.247103 21.3399 0.734976 20.6533C1.22285 19.9305 1.75589 19.9576 1.75589 19.9576C10.2033 17.0304 20.4938 22.3247 20.4938 22.3247C30.1338 27.2125 31.7781 32.9405 31.5975 35.163ZM6.10158 34.8649C5.1439 35.3347 5.80343 36.0123 5.80343 36.0123C7.60133 37.9457 9.81483 39.1563 11.9199 39.9062C12.1639 36.5724 12.1277 35.3979 12.1548 33.7174C8.86619 33.9433 6.96891 34.4673 6.10158 34.8649Z" fill="white"/>
<path d="M94 34.1781V35.3707C94 35.6327 93.7922 35.8405 93.5302 35.8405H87.8474C87.8474 36.1386 87.8564 36.4006 87.8564 36.6446C87.8564 38.4063 87.7841 39.8428 87.6125 41.46C87.5854 41.704 87.3866 41.8847 87.1517 41.8847H85.923C85.7965 41.8847 85.6791 41.8305 85.5977 41.7401C85.5164 41.6498 85.4713 41.5233 85.4893 41.3968C85.661 39.7886 85.7423 38.3702 85.7423 36.6446C85.7423 36.3916 85.7423 36.1296 85.7333 35.8405H80.1137C79.8517 35.8405 79.6439 35.6327 79.6439 35.3707V34.1781C79.6439 33.9161 79.8517 33.7083 80.1137 33.7083H85.652C85.5345 31.7658 85.2996 29.8957 84.9201 27.9984C84.9021 27.8809 84.9292 27.7635 85.0015 27.6731C85.0737 27.5828 85.1821 27.5286 85.2996 27.5286H86.6277C86.8355 27.5286 87.0072 27.6731 87.0523 27.8809C87.4228 29.8414 87.6577 31.7478 87.7751 33.7083H93.5302C93.7832 33.7083 94 33.9251 94 34.1781Z" fill="white"/>
<path d="M86.2663 24.7189C83.33 17.5002 78.37 11.3476 71.9192 6.92057C65.3149 2.39419 57.5722 0 49.5313 0C36.2322 0 23.8909 6.60435 16.5276 17.6718C16.4463 17.7893 16.4282 17.9429 16.4734 18.0784C16.5186 18.223 16.627 18.3223 16.7625 18.3675L17.7925 18.7199C17.8557 18.7379 17.9189 18.747 17.9731 18.747C18.1629 18.747 18.3436 18.6476 18.452 18.494C21.831 13.5249 26.4025 9.39607 31.6788 6.54111C37.1267 3.59581 43.2974 2.0328 49.5223 2.0328C57.0481 2.0328 64.303 4.25534 70.5189 8.44743C76.5811 12.5401 81.2882 18.2591 84.1341 24.9719C84.2154 25.1706 84.4142 25.3061 84.631 25.3061H85.8597C86.0043 25.3061 86.1398 25.2339 86.2121 25.1164C86.3024 24.999 86.3205 24.8544 86.2663 24.7189ZM84.3781 25.1435C84.4052 25.1616 84.4323 25.1797 84.4594 25.1887C84.4323 25.1706 84.4052 25.1616 84.3781 25.1435Z" fill="url(#paint0_radial_314_75)"/>
<defs>
<radialGradient id="paint0_radial_314_75" cx="0" cy="0" r="1" gradientUnits="userSpaceOnUse" gradientTransform="translate(85.112 25.2606) scale(68.6748 68.6748)">
<stop offset="0.00708621" stop-color="white"/>
<stop offset="0.0300991" stop-color="#CBFFFF"/>
<stop offset="0.0570069" stop-color="#96FFFF"/>
<stop offset="0.0842769" stop-color="#68FFFF"/>
<stop offset="0.1113" stop-color="#43FFFF"/>
<stop offset="0.1382" stop-color="#25FFFF"/>
<stop offset="0.1647" stop-color="#11FFFF"/>
<stop offset="0.1908" stop-color="#04FFFF"/>
<stop offset="0.2159" stop-color="#00FFFF"/>
<stop offset="1" stop-color="#0000FF" stop-opacity="0"/>
</radialGradient>
</defs>
</svg>
