<svg width="22" height="27" viewBox="0 0 22 27" fill="none" xmlns="http://www.w3.org/2000/svg">
<path d="M15.4231 8.69226H17.8269C18.4645 8.69226 19.0759 8.94552 19.5267 9.39633C19.9775 9.84714 20.2308 10.4586 20.2308 11.0961V23.5961C20.2308 24.2336 19.9775 24.8451 19.5267 25.2959C19.0759 25.7467 18.4645 26 17.8269 26H3.40385C2.76631 26 2.15488 25.7467 1.70407 25.2959C1.25326 24.8451 1 24.2336 1 23.5961V11.0961C1 10.4586 1.25326 9.84714 1.70407 9.39633C2.15488 8.94552 2.76631 8.69226 3.40385 8.69226H5.80769" stroke="#999999" stroke-width="2" stroke-linecap="round" stroke-linejoin="round"/>
<path d="M5.80766 14.4615L10.6154 19.2692L15.423 14.4615M10.6154 1V18.3077" stroke="#999999" stroke-width="2" stroke-linecap="round" stroke-linejoin="round"/>
</svg>
