<svg width="16" height="19" viewBox="0 0 16 19" fill="none" xmlns="http://www.w3.org/2000/svg">
<path d="M1.84826 18.4027C1.54123 18.4021 1.23963 18.3216 0.973136 18.1691C0.373052 17.8291 0 17.169 0 16.4524V1.95036C0 1.23176 0.373052 0.573668 0.973136 0.233621C1.24598 0.0768171 1.55593 -0.00381955 1.87059 0.000139038C2.18525 0.00409762 2.49308 0.0925063 2.76188 0.256124L15.1561 7.67516C15.4144 7.83713 15.6274 8.06204 15.775 8.32882C15.9226 8.59559 16 8.89548 16 9.20037C16 9.50526 15.9226 9.80515 15.775 10.0719C15.6274 10.3387 15.4144 10.5636 15.1561 10.7256L2.75988 18.1466C2.48479 18.3129 2.16971 18.4014 1.84826 18.4027Z" fill="black"/>
</svg>
