<svg width="15" height="14" viewBox="0 0 15 14" fill="none" xmlns="http://www.w3.org/2000/svg">
<path d="M11.8095 13.9985C11.7043 13.9989 11.6016 13.9661 11.5161 13.9048L7.49762 10.9914L3.47913 13.9048C3.39328 13.967 3.28985 14.0004 3.18379 14C3.07773 13.9996 2.97455 13.9655 2.88915 13.9026C2.80375 13.8397 2.74057 13.7513 2.70873 13.6501C2.6769 13.549 2.67806 13.4403 2.71205 13.3398L4.27933 8.69768L0.217405 5.91214C0.129421 5.85187 0.063016 5.76505 0.027892 5.66435C-0.00723212 5.56365 -0.00923425 5.45436 0.0221782 5.35245C0.0535906 5.25053 0.116771 5.16133 0.202489 5.09788C0.288207 5.03443 0.391969 5.00005 0.498616 4.99977H5.50978L7.02207 0.345741C7.05465 0.245262 7.11821 0.157684 7.20365 0.0955702C7.28908 0.0334567 7.392 0 7.49762 0C7.60325 0 7.70617 0.0334567 7.7916 0.0955702C7.87704 0.157684 7.9406 0.245262 7.97318 0.345741L9.48547 5.00133H14.4966C14.6034 5.00128 14.7074 5.03542 14.7934 5.09875C14.8794 5.16208 14.9428 5.25127 14.9744 5.35326C15.006 5.45526 15.0041 5.56469 14.969 5.66554C14.934 5.76639 14.8675 5.85336 14.7794 5.9137L10.7159 8.69768L12.2823 13.3386C12.3076 13.4137 12.3148 13.4938 12.3031 13.5723C12.2914 13.6507 12.2612 13.7252 12.215 13.7897C12.1688 13.8542 12.108 13.9067 12.0375 13.943C11.967 13.9793 11.8888 13.9984 11.8095 13.9985Z" fill="#F9F9F9"/>
</svg>
